<svg width="80" height="80" viewBox="0 0 80 80" fill="none" xmlns="http://www.w3.org/2000/svg">
<circle cx="40" cy="40" r="40" fill="white"/>
<path d="M36.395 14.6307C35.567 14.9783 34.7803 15.62 34.5319 16.1548C34.2007 16.7965 33.8695 24.8715 33.5382 40.674L33 64.2574L34.1179 65.1933C36.602 67.3056 42.6468 67.1452 44.9654 64.8992C45.8348 64.0703 45.8762 63.7227 46.1246 51.5299C46.2489 44.6581 46.4145 36.9039 46.4559 34.337L46.5801 29.6845L45.1724 29.4973C44.3857 29.3903 43.3507 29.4171 42.8538 29.524L41.943 29.7379L41.6532 46.4228C41.4047 61.3964 41.2805 63.1077 40.7009 63.4018C39.8728 63.8029 38.962 63.8296 38.1339 63.5088C37.6371 63.2948 37.6371 59.8456 38.0511 40.4601C38.3409 27.893 38.6308 17.4649 38.7136 17.2778C38.8378 17.0906 39.583 16.9569 40.5767 16.9569H42.2328V20.0586V23.1335L44.4271 23.0533L46.5801 22.9731L46.7043 19.7645C46.8699 16.1013 46.3731 15.1387 44.0959 14.4435C41.9844 13.775 38.0925 13.882 36.395 14.6307Z" fill="#542C08"/>
</svg>
