<svg width="33" height="33" viewBox="0 0 33 33" fill="none" xmlns="http://www.w3.org/2000/svg">
<path d="M33 0H0V33H33V0Z" fill="#F2EEF1"/>
<path d="M20.1748 20.253H22.9824C22.8926 21.3236 22.5931 22.2782 22.084 23.1167C21.5749 23.9478 20.8599 24.6029 19.939 25.0821C19.0181 25.5612 17.8988 25.8008 16.5811 25.8008C15.5703 25.8008 14.6606 25.6211 13.8521 25.2617C13.0435 24.8949 12.3509 24.3783 11.7744 23.7119C11.1979 23.0381 10.7562 22.2258 10.4492 21.2749C10.1497 20.3241 10 19.2609 10 18.0855V16.7266C10 15.5511 10.1535 14.488 10.4604 13.5371C10.7749 12.5863 11.2241 11.7739 11.8081 11.1001C12.3921 10.4188 13.0921 9.89844 13.9082 9.53906C14.7318 9.17969 15.6564 9 16.6821 9C17.9849 9 19.0855 9.23958 19.9839 9.71875C20.8823 10.1979 21.5786 10.8605 22.0728 11.7065C22.5744 12.5526 22.8814 13.5221 22.9937 14.6152H20.186C20.1112 13.9115 19.9465 13.3088 19.6919 12.8071C19.4448 12.3055 19.078 11.9237 18.5913 11.6616C18.1047 11.3921 17.4683 11.2573 16.6821 11.2573C16.0383 11.2573 15.4767 11.3771 14.9976 11.6167C14.5184 11.8563 14.1178 12.2082 13.7959 12.6724C13.474 13.1366 13.2306 13.7093 13.0659 14.3906C12.9087 15.0645 12.8301 15.8356 12.8301 16.7041V18.0855C12.8301 18.909 12.9012 19.6577 13.0435 20.3316C13.1932 20.9979 13.4178 21.5707 13.7173 22.0498C14.0243 22.529 14.4136 22.8996 14.8853 23.1616C15.3569 23.4237 15.9222 23.5547 16.5811 23.5547C17.3822 23.5547 18.0298 23.4274 18.5239 23.1729C19.0256 22.9183 19.4036 22.5477 19.6582 22.0611C19.9203 21.5669 20.0925 20.9642 20.1748 20.253Z" fill="#474747"/>
</svg>
