<svg width="80" height="80" viewBox="0 0 80 80" fill="none" xmlns="http://www.w3.org/2000/svg">
<circle cx="40" cy="40" r="40" fill="white"/>
<path d="M15.0367 32.1926C14.7839 32.2988 14.5436 32.4948 14.4678 32.6581C14.3666 32.854 14.2655 35.3198 14.1644 40.1453L14 47.3468L14.3414 47.6326C15.0999 48.2776 16.9458 48.2286 17.6538 47.5428C17.9193 47.2897 17.9319 47.1835 18.0078 43.4603C18.0457 41.3619 18.0963 38.9941 18.1089 38.2102L18.1469 36.7895L17.717 36.7324C17.4768 36.6997 17.1607 36.7079 17.009 36.7405L16.7309 36.8059L16.6424 41.9008C16.5665 46.4732 16.5286 46.9957 16.3516 47.0855C16.0987 47.208 15.8206 47.2162 15.5677 47.1182C15.416 47.0529 15.416 45.9996 15.5424 40.08C15.6309 36.2425 15.7194 33.0581 15.7447 33.001C15.7826 32.9438 16.0102 32.903 16.3136 32.903H16.8194V33.8501V34.7891L17.4894 34.7646L18.1469 34.7401L18.1848 33.7603C18.2354 32.6417 18.0836 32.3478 17.3883 32.1355C16.7435 31.9314 15.5551 31.964 15.0367 32.1926Z" fill="#542C08"/>
<path d="M23.8614 32.0539C23.8109 32.0865 23.7729 32.2906 23.7729 32.5111V32.903H24.4809H25.1889L25.0878 39.6963C25.0246 43.4358 24.974 46.8488 24.974 47.2734V48.049L25.6188 48.0735L26.2762 48.098L26.3521 47.2979C26.39 46.8569 26.4532 43.4848 26.5038 39.8024C26.5544 35.4831 26.6302 33.0745 26.7061 33.001C26.7819 32.952 27.1107 32.903 27.4647 32.903H28.0842L28.0462 32.4703L28.0083 32.0457L25.9854 32.0212C24.8729 32.0049 23.912 32.0212 23.8614 32.0539Z" fill="#542C08"/>
<path d="M33.5965 33.4908C33.4195 36.5118 33.47 36.8711 34.1907 37.3365C34.5447 37.5651 34.7849 37.6222 35.5308 37.6549L35.9733 37.6794L35.9354 42.4151C35.9101 45.0115 35.8848 47.1589 35.8595 47.1671C35.7331 47.2569 34.9998 47.2324 34.886 47.1426C34.7849 47.0609 34.7723 45.926 34.8355 43.0193C34.924 39.639 34.9113 39.0021 34.7596 38.9368C34.5447 38.847 33.8746 38.847 33.6723 38.9286C33.5712 38.9695 33.508 40.137 33.4448 43.1173C33.3563 46.8813 33.3689 47.2651 33.5585 47.5263C33.8367 47.8938 34.2539 48.0816 34.9493 48.1387C35.9733 48.2285 36.7698 48.0162 37.1365 47.559C37.3135 47.3304 37.4273 43.8358 37.4399 37.4753L37.4652 32.1272L36.833 32.1027L36.2009 32.0782L36.125 32.7069C36.0745 33.0499 36.0365 34.0541 36.0365 34.9441C36.0365 36.6343 35.9986 36.7404 35.4423 36.7404C34.9113 36.7404 34.8608 36.5281 34.9113 34.2583L34.9619 32.1272L34.3171 32.1027L33.6723 32.0782L33.5965 33.4908Z" fill="#542C08"/>
<path d="M43.0658 32.2253C43.0405 32.307 42.99 35.9159 42.9647 40.2515L42.9268 48.1307L44.3807 48.147C45.9737 48.1715 46.1001 48.1389 46.6058 47.6408C46.8334 47.4122 46.846 47.1509 46.884 40.129C46.9093 32.9439 46.9093 32.8622 46.6564 32.5928C46.2898 32.209 45.7335 32.0865 44.3301 32.0865C43.2934 32.0865 43.129 32.1029 43.0658 32.2253ZM45.4933 38.1694C45.5185 40.9945 45.4933 44.2033 45.4427 45.2893L45.3668 47.2734H44.8738C44.5703 47.2734 44.3807 47.2325 44.368 47.1672C44.3175 46.8325 44.4186 33.099 44.4692 33.0418C44.5071 33.0092 44.7347 32.9847 44.9875 33.001L45.4553 33.0255L45.4933 38.1694Z" fill="#542C08"/>
<path d="M52.5607 32.2254C52.5101 32.2498 52.4722 35.8751 52.4722 40.2678V48.2532H53.1675H53.8629V43.0848V37.9163L54.318 36.7406C54.5582 36.0955 54.8111 35.5077 54.8743 35.4342C54.9502 35.3607 55.0007 37.9 55.0007 41.7784C55.0007 45.3383 55.0387 48.2532 55.1019 48.2613C55.1525 48.2613 55.3042 48.2777 55.4432 48.3022C55.5823 48.3185 55.8478 48.3103 56.0501 48.2858L56.3914 48.2369L56.3662 40.227L56.3282 32.209L55.6835 32.1845L55.026 32.16L54.5582 33.4256C54.2927 34.1278 54.0272 34.6748 53.9767 34.6503C53.9135 34.6259 53.8629 34.0625 53.8629 33.3848V32.1682H53.256C52.9147 32.1682 52.5986 32.1927 52.5607 32.2254Z" fill="#542C08"/>
<path d="M62.4853 32.4539C61.8405 32.805 61.8152 32.9356 61.8784 35.1565C61.9164 36.2751 61.9417 37.2794 61.9417 37.3937C61.8658 40.9128 61.8405 48.0163 61.8911 48.1551C61.9543 48.3266 62.0175 48.3429 62.6244 48.3184L63.2818 48.2939L63.2439 43.2153C63.2059 39.4676 63.2312 38.0959 63.345 37.9652C63.4714 37.8183 63.5726 37.7938 64.0151 37.8346C64.3059 37.8591 64.5587 37.8754 64.5714 37.8754C64.5967 37.8836 64.6219 40.2269 64.6346 43.0847L64.6725 48.2939L65.3426 48.3184L66 48.3429V40.3004V32.2497H64.4323C62.9404 32.2497 62.8393 32.2579 62.4853 32.4539ZM64.5461 35.0258V36.863H63.9139H63.2818L63.2439 35.1075C63.2312 34.144 63.2439 33.3112 63.2818 33.2459C63.3197 33.1724 63.5347 33.1479 63.9392 33.1642L64.5461 33.1887V35.0258Z" fill="#542C08"/>
<path d="M21.2947 39.5492C21.1683 39.7615 21.3453 39.9412 21.6487 39.9085C21.8636 39.8922 21.9395 39.8268 21.9395 39.6799C21.9395 39.5329 21.8636 39.4676 21.6487 39.4513C21.4843 39.4349 21.3326 39.4758 21.2947 39.5492Z" fill="#542C08"/>
<path d="M29.8543 39.5901C29.6899 39.786 29.9681 40.0555 30.2715 39.982C30.5623 39.9085 30.6634 39.7044 30.4738 39.5574C30.2589 39.3941 30.006 39.4023 29.8543 39.5901Z" fill="#542C08"/>
<path d="M39.779 39.639C39.6652 39.835 39.8296 40.0065 40.1456 40.0065C40.487 40.0065 40.6514 39.7942 40.4491 39.6309C40.2594 39.4839 39.8801 39.4839 39.779 39.639Z" fill="#542C08"/>
<path d="M49.2988 39.6472C49.1092 39.7942 49.2735 40.0309 49.6022 40.0718C49.9183 40.1126 50.1079 39.8023 49.8677 39.6472C49.6275 39.4839 49.5137 39.4839 49.2988 39.6472Z" fill="#542C08"/>
<path d="M58.8317 39.6881C58.6042 39.835 58.7938 40.0881 59.1099 40.0881C59.4133 40.0881 59.6409 39.8432 59.4892 39.6799C59.388 39.5737 59.0087 39.5737 58.8317 39.6881Z" fill="#542C08"/>
</svg>
