<svg width="50" height="50" viewBox="0 0 50 50" fill="none" xmlns="http://www.w3.org/2000/svg">
<path d="M48.2045 28.4125C47.6445 27.9261 46.9921 27.5848 46.2956 27.4138C45.5992 27.2428 44.8767 27.2467 44.1818 27.425L30.6818 30.925C30.6067 29.656 30.0948 28.4662 29.2504 27.5978C28.4059 26.7293 27.2924 26.2473 26.1364 26.25H19.2273C16.8369 26.243 14.4863 26.9238 12.4091 28.225L8.84091 30.5C8.73739 30.3481 8.60377 30.2241 8.45019 30.1375C8.29661 30.0508 8.12711 30.0038 7.95455 30H1.13636C0.834981 30 0.545943 30.1317 0.332833 30.3661C0.119724 30.6005 0 30.9185 0 31.25V48.75C0 49.0815 0.119724 49.3995 0.332833 49.6339C0.545943 49.8683 0.834981 50 1.13636 50H7.95455C8.25593 50 8.54497 49.8683 8.75808 49.6339C8.97118 49.3995 9.09091 49.0815 9.09091 48.75H18.6364C20.7549 48.7495 22.8443 48.2059 24.7386 47.1625L49.375 33.6125C49.5624 33.5086 49.72 33.3497 49.8303 33.1533C49.9406 32.957 49.9994 32.7308 50 32.5C50.0003 31.7139 49.839 30.9378 49.528 30.23C49.2171 29.5221 48.7647 28.9008 48.2045 28.4125ZM2.27273 47.5V32.5H6.81818V47.5H2.27273ZM23.7273 44.925C22.1455 45.7914 20.4034 46.2449 18.6364 46.25H9.09091V33.225L13.6364 30.4C15.366 29.3115 17.3255 28.7425 19.3182 28.75H26.1364C26.7391 28.75 27.3172 29.0134 27.7434 29.4822C28.1696 29.9511 28.4091 30.587 28.4091 31.25C28.4091 31.913 28.1696 32.5489 27.7434 33.0178C27.3172 33.4866 26.7391 33.75 26.1364 33.75H15.9091V36.25H26.1364C26.9552 36.2512 27.7591 36.0091 28.4632 35.5493C29.1673 35.0894 29.7454 34.4289 30.1364 33.6375L44.7045 29.8875C45.0655 29.7917 45.4416 29.788 45.8041 29.8769C46.1665 29.9657 46.5056 30.1446 46.7955 30.4C47.2026 30.7578 47.4969 31.2477 47.6364 31.8L23.7273 44.925ZM25 22.5C27.0228 22.5 29.0001 21.8402 30.682 20.604C32.3638 19.3679 33.6747 17.6109 34.4488 15.5552C35.2228 13.4995 35.4254 11.2375 35.0308 9.05524C34.6361 6.87295 33.6621 4.86839 32.2318 3.29505C30.8015 1.72171 28.9791 0.650254 26.9952 0.216171C25.0113 -0.217913 22.955 0.00487439 21.0862 0.85636C19.2174 1.70785 17.6201 3.14979 16.4963 4.99984C15.3725 6.84989 14.7727 9.02496 14.7727 11.25C14.7727 14.2337 15.8502 17.0952 17.7682 19.205C19.6862 21.3147 22.2876 22.5 25 22.5ZM25 2.5C26.5733 2.5 28.1112 3.01318 29.4193 3.97465C30.7274 4.93611 31.747 6.30267 32.349 7.90152C32.9511 9.50038 33.1086 11.2597 32.8017 12.957C32.4948 14.6544 31.7372 16.2135 30.6247 17.4372C29.5122 18.6609 28.0949 19.4943 26.5519 19.8319C25.0088 20.1695 23.4094 19.9962 21.9559 19.334C20.5024 18.6717 19.2601 17.5502 18.386 16.1112C17.512 14.6723 17.0455 12.9806 17.0455 11.25C17.0455 8.92936 17.8835 6.70376 19.3753 5.06282C20.8671 3.42188 22.8903 2.5 25 2.5ZM23.8636 16.25H21.5909V13.75H26.1364V12.5H22.7273C22.4259 12.5 22.1369 12.3683 21.9237 12.1339C21.7106 11.8995 21.5909 11.5815 21.5909 11.25V7.5C21.5909 7.16848 21.7106 6.85054 21.9237 6.61612C22.1369 6.3817 22.4259 6.25 22.7273 6.25H23.8636V5H26.1364V6.25H28.4091V8.75H23.8636V10H27.2727C27.5741 10 27.8631 10.1317 28.0763 10.3661C28.2894 10.6005 28.4091 10.9185 28.4091 11.25V15C28.4091 15.3315 28.2894 15.6495 28.0763 15.8839C27.8631 16.1183 27.5741 16.25 27.2727 16.25H26.1364V17.5H23.8636V16.25Z" fill="#542C08"/>
</svg>
