<svg width="50" height="50" viewBox="0 0 50 50" fill="none" xmlns="http://www.w3.org/2000/svg">
<path d="M37.0588 2.41588C34.0941 2.41588 31.3647 3.36767 29.1824 4.96333C26.1647 4.38665 23.4588 2.7966 21.5176 0.411511C21.0765 -0.13717 20.1059 -0.13717 19.6588 0.411511C17.1824 3.46285 13.4471 5.21527 9.41177 5.21527H3.52941C1.58235 5.21527 0 6.72135 0 8.57455V27.7112C0 38.9536 8.78235 48.5275 20.4294 49.9944C20.4824 50 20.5353 50 20.5882 50C20.6353 50 20.6882 50 20.7412 49.9944C32.3882 48.5275 41.1765 38.9536 41.1765 27.7112C41.1765 27.6776 41.1647 27.644 41.1647 27.6048H41.1765V26.4067C46.2941 24.7607 50 20.1528 50 14.7332C50 7.93629 44.1941 2.41588 37.0588 2.41588ZM38.8235 27.7112C38.8235 37.7834 30.9941 46.372 20.5882 47.7549C10.1765 46.372 2.35294 37.7834 2.35294 27.7112V8.57455C2.35294 7.95308 2.87647 7.45479 3.52941 7.45479H9.41177C13.7 7.45479 17.7 5.78075 20.5882 2.82459C22.4118 4.68899 24.6765 6.04389 27.1765 6.78853C26.4 7.66194 25.7471 8.64173 25.2471 9.69991C23.8471 9.20721 22.5 8.56335 21.2471 7.75712C20.8471 7.49958 20.3235 7.49958 19.9294 7.75712C16.8176 9.75589 13.1765 10.8141 9.41177 10.8141H7.05882C6.40588 10.8141 5.88235 11.3124 5.88235 11.9338V27.756C5.88235 35.9414 11.9765 42.9343 20.3765 44.3844C20.4471 44.3956 20.5176 44.4012 20.5882 44.4012C20.6529 44.4012 20.7235 44.3956 20.7941 44.3844C29.1941 42.9343 35.2941 35.9414 35.2941 27.756V26.9274C35.8706 27.0058 36.4588 27.045 37.0588 27.045C37.6529 27.045 38.2412 27.0058 38.8235 26.9274V27.6048H38.8294C38.8294 27.644 38.8235 27.6776 38.8235 27.7112ZM32.9412 26.4067V27.756C32.9412 34.7881 27.7588 40.8068 20.5882 42.1449C13.4118 40.8068 8.23529 34.7881 8.23529 27.756V13.0536H9.41177C13.3882 13.0536 17.2353 12.0066 20.5882 10.019C21.8235 10.7525 23.1294 11.3515 24.4824 11.8274C24.2412 12.7568 24.1176 13.731 24.1176 14.7332C24.1176 20.1528 27.8176 24.7607 32.9412 26.4067ZM37.0588 24.8054C31.2176 24.8054 26.4706 20.2872 26.4706 14.7332C26.4706 9.17362 31.2176 4.65539 37.0588 4.65539C42.8941 4.65539 47.6471 9.17362 47.6471 14.7332C47.6471 20.2872 42.8941 24.8054 37.0588 24.8054Z" fill="#542C08"/>
<path d="M41.5173 10.5789L35.2938 16.508L32.5938 13.9381C32.135 13.5014 31.3879 13.5014 30.9291 13.9381C30.4703 14.3749 30.4703 15.0859 30.9291 15.5226L34.4585 18.8819C34.6879 19.1002 34.9879 19.2122 35.2938 19.2122C35.5938 19.2122 35.8938 19.1002 36.1232 18.8819L43.182 12.1633C43.6408 11.7266 43.6408 11.0156 43.182 10.5789C42.7232 10.1422 41.9761 10.1422 41.5173 10.5789Z" fill="#542C08"/>
</svg>
