<svg width="38" height="38" viewBox="0 0 38 38" fill="none" xmlns="http://www.w3.org/2000/svg">
<path d="M25.9634 12.0366C25.7889 11.8606 25.5814 11.721 25.3526 11.6257C25.1239 11.5304 24.8786 11.4814 24.6308 11.4814C24.383 11.4814 24.1377 11.5304 23.909 11.6257C23.6803 11.721 23.4727 11.8606 23.2982 12.0366L19 16.3535L14.7018 12.0366C14.3484 11.6831 13.869 11.4846 13.3692 11.4846C12.8694 11.4846 12.39 11.6831 12.0366 12.0366C11.6831 12.39 11.4846 12.8694 11.4846 13.3692C11.4846 13.869 11.6831 14.3484 12.0366 14.7018L16.3535 19L12.0366 23.2982C11.8606 23.4727 11.721 23.6803 11.6257 23.909C11.5304 24.1377 11.4814 24.383 11.4814 24.6308C11.4814 24.8786 11.5304 25.1239 11.6257 25.3526C11.721 25.5814 11.8606 25.7889 12.0366 25.9634C12.2111 26.1394 12.4186 26.279 12.6474 26.3743C12.8761 26.4696 13.1214 26.5186 13.3692 26.5186C13.617 26.5186 13.8623 26.4696 14.091 26.3743C14.3197 26.279 14.5273 26.1394 14.7018 25.9634L19 21.6465L23.2982 25.9634C23.4727 26.1394 23.6803 26.279 23.909 26.3743C24.1377 26.4696 24.383 26.5186 24.6308 26.5186C24.8786 26.5186 25.1239 26.4696 25.3526 26.3743C25.5814 26.279 25.7889 26.1394 25.9634 25.9634C26.1394 25.7889 26.279 25.5814 26.3743 25.3526C26.4696 25.1239 26.5186 24.8786 26.5186 24.6308C26.5186 24.383 26.4696 24.1377 26.3743 23.909C26.279 23.6803 26.1394 23.4727 25.9634 23.2982L21.6465 19L25.9634 14.7018C26.1394 14.5273 26.279 14.3197 26.3743 14.091C26.4696 13.8623 26.5186 13.617 26.5186 13.3692C26.5186 13.1214 26.4696 12.8761 26.3743 12.6474C26.279 12.4186 26.1394 12.2111 25.9634 12.0366ZM32.2699 5.73006C30.5385 3.9374 28.4674 2.50751 26.1775 1.52382C23.8875 0.540141 21.4246 0.0223651 18.9325 0.00070867C16.4403 -0.0209477 13.9687 0.453949 11.662 1.39769C9.35536 2.34143 7.25972 3.73511 5.49742 5.49742C3.73511 7.25972 2.34143 9.35536 1.39769 11.662C0.453949 13.9687 -0.0209477 16.4403 0.00070867 18.9325C0.0223651 21.4246 0.540141 23.8875 1.52382 26.1775C2.50751 28.4674 3.9374 30.5385 5.73006 32.2699C7.46148 34.0626 9.53257 35.4925 11.8225 36.4762C14.1124 37.4599 16.5754 37.9776 19.0675 37.9993C21.5597 38.0209 24.0313 37.5461 26.338 36.6023C28.6446 35.6586 30.7403 34.2649 32.5026 32.5026C34.2649 30.7403 35.6586 28.6446 36.6023 26.338C37.5461 24.0313 38.0209 21.5597 37.9993 19.0675C37.9776 16.5754 37.4599 14.1124 36.4762 11.8225C35.4925 9.53257 34.0626 7.46148 32.2699 5.73006ZM29.6235 29.6235C27.1685 32.0811 23.9373 33.6116 20.4805 33.9541C17.0237 34.2966 13.555 33.43 10.6655 31.5018C7.77599 29.5737 5.6444 26.7033 4.63388 23.3798C3.62337 20.0563 3.79645 16.4852 5.12365 13.2749C6.45085 10.0647 8.85005 7.41395 11.9125 5.77429C14.9749 4.13462 18.5111 3.60749 21.9186 4.28271C25.3262 4.95792 28.3941 6.79371 30.5999 9.47729C32.8057 12.1609 34.0128 15.5262 34.0155 19C34.0222 20.9732 33.6375 22.9281 32.8836 24.7516C32.1297 26.5752 31.0216 28.231 29.6235 29.6235Z" fill="#542C08"/>
</svg>
