<svg width="22" height="22" viewBox="0 0 22 22" fill="none" xmlns="http://www.w3.org/2000/svg">
<path d="M15.781 1H6.21905C3.33665 1 1 3.33665 1 6.21905V15.781C1 18.6634 3.33665 21 6.21905 21H15.781C18.6634 21 21 18.6634 21 15.781V6.21905C21 3.33665 18.6634 1 15.781 1Z" stroke="white" stroke-linecap="round" stroke-linejoin="round"/>
<path d="M10.9998 16.2382C13.8927 16.2382 16.2379 13.893 16.2379 11.0001C16.2379 8.10714 13.8927 5.76196 10.9998 5.76196C8.10689 5.76196 5.76172 8.10714 5.76172 11.0001C5.76172 13.893 8.10689 16.2382 10.9998 16.2382Z" stroke="white" stroke-linecap="round" stroke-linejoin="round"/>
<path d="M16.7145 4.80956C16.9775 4.80956 17.1907 4.59636 17.1907 4.33337C17.1907 4.07038 16.9775 3.85718 16.7145 3.85718C16.4515 3.85718 16.2383 4.07038 16.2383 4.33337C16.2383 4.59636 16.4515 4.80956 16.7145 4.80956Z" stroke="white" stroke-linecap="round" stroke-linejoin="round"/>
</svg>
