<svg width="31" height="31" viewBox="0 0 31 31" fill="none" xmlns="http://www.w3.org/2000/svg">
<path d="M21.1807 9.8193C21.0383 9.67579 20.869 9.56188 20.6824 9.48414C20.4958 9.40641 20.2957 9.36638 20.0936 9.36638C19.8914 9.36638 19.6913 9.40641 19.5047 9.48414C19.3181 9.56188 19.1488 9.67579 19.0064 9.8193L15.5 13.341L11.9936 9.8193C11.7053 9.53098 11.3142 9.369 10.9064 9.369C10.4987 9.369 10.1076 9.53098 9.8193 9.8193C9.53098 10.1076 9.369 10.4987 9.369 10.9064C9.369 11.3142 9.53098 11.7053 9.8193 11.9936L13.341 15.5L9.8193 19.0064C9.67579 19.1488 9.56188 19.3181 9.48414 19.5047C9.40641 19.6913 9.36638 19.8914 9.36638 20.0936C9.36638 20.2957 9.40641 20.4958 9.48414 20.6824C9.56188 20.869 9.67579 21.0383 9.8193 21.1807C9.96165 21.3242 10.131 21.4381 10.3176 21.5159C10.5042 21.5936 10.7043 21.6336 10.9064 21.6336C11.1086 21.6336 11.3087 21.5936 11.4953 21.5159C11.6819 21.4381 11.8512 21.3242 11.9936 21.1807L15.5 17.659L19.0064 21.1807C19.1488 21.3242 19.3181 21.4381 19.5047 21.5159C19.6913 21.5936 19.8914 21.6336 20.0936 21.6336C20.2957 21.6336 20.4958 21.5936 20.6824 21.5159C20.869 21.4381 21.0383 21.3242 21.1807 21.1807C21.3242 21.0383 21.4381 20.869 21.5159 20.6824C21.5936 20.4958 21.6336 20.2957 21.6336 20.0936C21.6336 19.8914 21.5936 19.6913 21.5159 19.5047C21.4381 19.3181 21.3242 19.1488 21.1807 19.0064L17.659 15.5L21.1807 11.9936C21.3242 11.8512 21.4381 11.6819 21.5159 11.4953C21.5936 11.3087 21.6336 11.1086 21.6336 10.9064C21.6336 10.7043 21.5936 10.5042 21.5159 10.3176C21.4381 10.131 21.3242 9.96165 21.1807 9.8193ZM26.3255 4.67452C24.913 3.21209 23.2234 2.0456 21.3553 1.24312C19.4872 0.440641 17.478 0.0182452 15.4449 0.000578125C13.4118 -0.0170889 11.3955 0.370327 9.51377 1.14022C7.632 1.91011 5.92241 3.04707 4.48474 4.48474C3.04707 5.92241 1.91011 7.632 1.14022 9.51377C0.370327 11.3955 -0.0170889 13.4118 0.000578125 15.4449C0.0182452 17.478 0.440641 19.4872 1.24312 21.3553C2.0456 23.2234 3.21209 24.913 4.67452 26.3255C6.08699 27.7879 7.77657 28.9544 9.64468 29.7569C11.5128 30.5594 13.522 30.9818 15.5551 30.9994C17.5882 31.0171 19.6045 30.6297 21.4862 29.8598C23.368 29.0899 25.0776 27.9529 26.5153 26.5153C27.9529 25.0776 29.0899 23.368 29.8598 21.4862C30.6297 19.6045 31.0171 17.5882 30.9994 15.5551C30.9818 13.522 30.5594 11.5128 29.7569 9.64468C28.9544 7.77657 27.7879 6.08699 26.3255 4.67452ZM24.1665 24.1665C22.1638 26.1715 19.5278 27.42 16.7078 27.6994C13.8877 27.9788 11.058 27.2718 8.70081 25.6989C6.34357 24.1259 4.60464 21.7843 3.78027 19.073C2.9559 16.3617 3.09711 13.4484 4.17982 10.8296C5.26253 8.21068 7.21977 6.04822 9.71808 4.7106C12.2164 3.37298 15.1012 2.94295 17.881 3.49379C20.6608 4.04462 23.1636 5.54223 24.9631 7.73147C26.7625 9.92072 27.7472 12.6661 27.7495 15.5C27.7549 17.1097 27.4411 18.7045 26.8261 20.1921C26.211 21.6797 25.3071 23.0306 24.1665 24.1665Z" fill="white"/>
</svg>
