<svg width="37" height="38" viewBox="0 0 37 38" fill="none" xmlns="http://www.w3.org/2000/svg">
<path d="M17.4753 4.54865L18.5 1.54741L19.5247 4.54865C19.8768 5.57974 20.0567 6.6989 20.2448 7.86855C20.3142 8.30006 20.3847 8.73843 20.4653 9.1818C20.7569 10.7845 21.1802 12.4192 22.2319 13.7231C23.6477 15.4783 25.7081 16.1264 27.7753 16.5638C28.2954 16.6738 28.8137 16.7707 29.3267 16.8666C30.9044 17.1614 32.4308 17.4467 33.7983 18.0763L35.7601 18.9796L32.0798 20.5291C31.3416 20.84 30.5068 21.0356 29.6173 21.1973C29.2525 21.2636 28.8622 21.3265 28.467 21.3903C27.9389 21.4755 27.402 21.5621 26.9054 21.66C25.1288 22.0103 23.3427 22.5877 22.3262 24.2404C22.2251 24.4049 22.1387 24.5806 22.0645 24.7671C21.4933 26.2031 21.2052 27.7167 20.9276 29.1755L20.911 29.2626C20.625 30.7648 20.344 32.2085 19.7877 33.5596L18.5437 36.5806L17.4732 33.4452C17.1215 32.4152 16.9415 31.2969 16.7534 30.1279C16.6841 29.6972 16.6137 29.2597 16.5332 28.8171C16.2419 27.2159 15.8192 25.5824 14.7702 24.2795C13.3557 22.5227 11.2947 21.8741 9.22666 21.4364C8.70583 21.3262 8.18673 21.2292 7.67308 21.1332C6.09522 20.8384 4.56878 20.5531 3.2017 19.9237L1.19553 19L3.2017 18.0763C4.56922 17.4467 6.09562 17.1614 7.67333 16.8666C8.18625 16.7707 8.7046 16.6738 9.22467 16.5638C11.2919 16.1264 13.3523 15.4783 14.7681 13.7231C15.8198 12.4192 16.2431 10.7845 16.5347 9.1818C16.6153 8.73843 16.6858 8.30006 16.7552 7.86855C16.9433 6.6989 17.1232 5.57974 17.4753 4.54865Z" fill="#542C08" stroke="#542C08"/>
</svg>
