<svg width="70" height="22" viewBox="0 0 70 22" fill="none" xmlns="http://www.w3.org/2000/svg">
<path d="M1.39558 0.259214C1.05519 0.402102 0.731826 0.665892 0.629711 0.885719C0.493557 1.14951 0.357403 4.46888 0.22125 10.9647L0 20.6591L0.459519 21.0438C1.48067 21.9121 3.96548 21.8461 4.91855 20.9229C5.27596 20.5821 5.29298 20.4392 5.39509 15.4272C5.44615 12.6024 5.51423 9.41497 5.53124 8.3598L5.5823 6.44732L5.00365 6.37038C4.68028 6.32641 4.2548 6.3374 4.05057 6.38137L3.67615 6.4693L3.55702 13.3279C3.4549 19.483 3.40384 20.1864 3.16557 20.3073C2.82519 20.4722 2.45077 20.4832 2.11038 20.3513C1.90615 20.2634 1.90615 18.8455 2.07634 10.8768C2.19548 5.7109 2.31461 1.42429 2.34865 1.34735C2.39971 1.27041 2.70605 1.21546 3.11452 1.21546H3.79528V2.49045V3.75445L4.6973 3.72147L5.5823 3.6885L5.63336 2.36954C5.70144 0.863735 5.49721 0.468048 4.56115 0.182276C3.69317 -0.0925064 2.09336 -0.048542 1.39558 0.259214Z" fill="#542C08"/>
<path d="M13.2749 0.0723782C13.2068 0.116344 13.1558 0.391127 13.1558 0.687891V1.21548H14.1088H15.0619L14.9258 10.3602C14.8407 15.3943 14.7726 19.9886 14.7726 20.5602V21.6043L15.6406 21.6373L16.5256 21.6703L16.6277 20.5931C16.6787 19.9996 16.7638 15.4602 16.8319 10.5031C16.9 4.68873 17.0021 1.44629 17.1042 1.34737C17.2063 1.28142 17.6488 1.21548 18.1254 1.21548H18.9593L18.9083 0.632935L18.8572 0.061388L16.1341 0.0284138C14.6364 0.00643158 13.343 0.0284138 13.2749 0.0723782Z" fill="#542C08"/>
<path d="M26.38 2.00683C26.1417 6.07361 26.2098 6.55723 27.1799 7.18373C27.6564 7.49149 27.9798 7.56843 28.9839 7.61239L29.5796 7.64537L29.5285 14.0203C29.4945 17.5156 29.4604 20.4063 29.4264 20.4173C29.2562 20.5382 28.2691 20.5052 28.1159 20.3843C27.9798 20.2744 27.9627 18.7466 28.0478 14.8337C28.167 10.2833 28.15 9.42596 27.9457 9.33803C27.6564 9.21712 26.7544 9.21712 26.4821 9.32704C26.3459 9.38199 26.2608 10.9537 26.1757 14.9656C26.0566 20.0326 26.0736 20.5492 26.3289 20.9009C26.7033 21.3955 27.265 21.6483 28.201 21.7252C29.5796 21.8461 30.6518 21.5604 31.1453 20.9448C31.3836 20.6371 31.5368 15.9328 31.5538 7.37058L31.5878 0.171282L30.7369 0.138308L29.8859 0.105333L29.7838 0.951664C29.7157 1.4133 29.6647 2.76523 29.6647 3.96328C29.6647 6.23848 29.6136 6.38137 28.8648 6.38137C28.15 6.38137 28.0819 6.09559 28.15 3.04001L28.218 0.171282L27.35 0.138308L26.4821 0.105333L26.38 2.00683Z" fill="#542C08"/>
<path d="M39.1272 0.30328C39.0931 0.413193 39.025 5.27135 38.991 11.1077L38.9399 21.7143L40.8972 21.7363C43.0416 21.7693 43.2118 21.7253 43.8925 21.0549C44.1989 20.7471 44.2159 20.3954 44.267 10.9429C44.301 1.27052 44.301 1.1606 43.9606 0.797888C43.4671 0.281298 42.7182 0.116428 40.8291 0.116428C39.4335 0.116428 39.2122 0.138411 39.1272 0.30328ZM42.3948 8.30495C42.4289 12.1079 42.3948 16.4275 42.3268 17.8894L42.2246 20.5603H41.5609C41.1524 20.5603 40.8972 20.5053 40.8801 20.4174C40.8121 19.9667 40.9482 1.47935 41.0163 1.40241C41.0673 1.35844 41.3737 1.32547 41.7141 1.34745L42.3438 1.38043L42.3948 8.30495Z" fill="#542C08"/>
<path d="M51.9087 0.303232C51.8406 0.336206 51.7896 5.21634 51.7896 11.1297V21.8792H52.7256H53.6617V14.9217V7.96417L54.2744 6.38142C54.5977 5.51311 54.9381 4.72174 55.0232 4.62281C55.1253 4.52389 55.1934 7.94219 55.1934 13.1631C55.1934 17.9553 55.2445 21.8792 55.3295 21.8901C55.3976 21.8901 55.6019 21.9121 55.7891 21.9451C55.9763 21.9671 56.3337 21.9561 56.606 21.9231L57.0655 21.8572L57.0315 11.0747L56.9804 0.28125L56.1124 0.248276L55.2274 0.215302L54.5977 1.91895C54.2403 2.86421 53.8829 3.60062 53.8148 3.56765C53.7297 3.53468 53.6617 2.77628 53.6617 1.864V0.226294H52.8447C52.3852 0.226294 51.9597 0.259266 51.9087 0.303232Z" fill="#542C08"/>
<path d="M65.2686 0.610924C64.4006 1.08355 64.3666 1.25941 64.4517 4.24904C64.5027 5.75485 64.5368 7.10678 64.5368 7.26066C64.4347 11.9979 64.4006 21.5603 64.4687 21.7472C64.5538 21.978 64.6389 22 65.4558 21.967L66.3408 21.9341L66.2897 15.0975C66.2387 10.0525 66.2727 8.20591 66.4259 8.03005C66.5961 7.83221 66.7322 7.79924 67.3279 7.85419C67.7194 7.88717 68.0597 7.90915 68.0768 7.90915C68.1108 7.92014 68.1448 11.0746 68.1619 14.9216L68.2129 21.9341L69.1149 21.967L69.9999 22V11.1736V0.336142H67.8896C65.8813 0.336142 65.7451 0.347132 65.2686 0.610924ZM68.0427 4.07318V6.54623H67.1918H66.3408L66.2897 4.1831C66.2727 2.88612 66.2897 1.76501 66.3408 1.67708C66.3919 1.57816 66.6812 1.54519 67.2258 1.56717L68.0427 1.60014V4.07318Z" fill="#542C08"/>
<path d="M9.81972 10.1623C9.64953 10.4481 9.8878 10.6899 10.2963 10.6459C10.5856 10.624 10.6877 10.536 10.6877 10.3382C10.6877 10.1403 10.5856 10.0524 10.2963 10.0304C10.075 10.0084 9.87078 10.0634 9.81972 10.1623Z" fill="#542C08"/>
<path d="M21.3422 10.2173C21.1209 10.4811 21.4953 10.8439 21.9038 10.7449C22.2953 10.646 22.4314 10.3712 22.1761 10.1734C21.8868 9.95356 21.5464 9.96455 21.3422 10.2173Z" fill="#542C08"/>
<path d="M34.7024 10.2832C34.5492 10.547 34.7705 10.7778 35.1959 10.7778C35.6554 10.7778 35.8767 10.4921 35.6044 10.2722C35.3491 10.0744 34.8385 10.0744 34.7024 10.2832Z" fill="#542C08"/>
<path d="M47.5178 10.2942C47.2625 10.4921 47.4837 10.8108 47.9262 10.8658C48.3517 10.9207 48.607 10.5031 48.2836 10.2942C47.9603 10.0744 47.8071 10.0744 47.5178 10.2942Z" fill="#542C08"/>
<path d="M60.3505 10.3492C60.0441 10.5471 60.2994 10.8878 60.7249 10.8878C61.1334 10.8878 61.4397 10.5581 61.2355 10.3383C61.0993 10.1954 60.5888 10.1954 60.3505 10.3492Z" fill="#542C08"/>
</svg>
